<?xml version="1.0" standalone="no"?>
<!DOCTYPE svg PUBLIC "-//W3C//DTD SVG 20010904//EN"
 "http://www.w3.org/TR/2001/REC-SVG-20010904/DTD/svg10.dtd">
<svg version="1.0" xmlns="http://www.w3.org/2000/svg"
 width="16.000000pt" height="16.000000pt" viewBox="0 0 16.000000 16.000000"
 preserveAspectRatio="xMidYMid meet">

<g transform="translate(0.000000,16.000000) scale(0.100000,-0.100000)"
fill="#000000" stroke="none">
<path d="M70 139 c0 -5 -4 -8 -8 -5 -5 3 -16 -4 -25 -15 -9 -10 -12 -19 -7
-19 6 0 13 7 17 16 5 13 9 12 29 -7 l24 -23 -22 -23 c-16 -18 -24 -20 -31 -11
-6 10 -7 9 -4 -2 2 -8 10 -14 16 -12 6 1 11 -4 11 -12 0 -17 36 -27 67 -20 21
6 23 12 23 75 l0 69 -45 0 c-25 0 -45 -5 -45 -11z m80 -64 c0 -30 -2 -55 -4
-55 -2 0 -11 -3 -20 -6 -13 -5 -16 3 -16 49 0 51 6 63 33 66 4 1 7 -24 7 -54z"/>
<path d="M2 85 c0 -16 2 -22 5 -12 2 9 2 23 0 30 -3 6 -5 -1 -5 -18z"/>
</g>
</svg>
