<?xml version="1.0" standalone="no"?>
<!DOCTYPE svg PUBLIC "-//W3C//DTD SVG 20010904//EN"
 "http://www.w3.org/TR/2001/REC-SVG-20010904/DTD/svg10.dtd">
<svg version="1.0" xmlns="http://www.w3.org/2000/svg"
 width="16.000000pt" height="16.000000pt" viewBox="0 0 16.000000 16.000000"
 preserveAspectRatio="xMidYMid meet">

<g transform="translate(0.000000,16.000000) scale(0.100000,-0.100000)"
fill="#000000" stroke="none">
<path d="M52 148 c-16 -16 -15 -33 4 -49 15 -12 14 -14 -7 -20 -24 -7 -24 -7
-1 -8 28 -1 28 -18 0 -50 l-23 -26 25 22 26 23 24 -23 24 -22 -22 26 c-28 32
-28 46 1 52 21 4 21 4 -2 6 -24 1 -24 1 -5 22 14 15 16 24 8 37 -14 22 -36 26
-52 10z m46 -21 c4 -20 -25 -34 -40 -19 -15 15 -1 44 19 40 10 -2 19 -11 21
-21z"/>
</g>
</svg>
