<?xml version="1.0" standalone="no"?>
<!DOCTYPE svg PUBLIC "-//W3C//DTD SVG 20010904//EN"
 "http://www.w3.org/TR/2001/REC-SVG-20010904/DTD/svg10.dtd">
<svg version="1.0" xmlns="http://www.w3.org/2000/svg"
 width="16.000000pt" height="16.000000pt" viewBox="0 0 16.000000 16.000000"
 preserveAspectRatio="xMidYMid meet">

<g transform="translate(0.000000,16.000000) scale(0.100000,-0.100000)"
fill="#000000" stroke="none">
<path d="M0 125 c0 -24 5 -35 15 -35 10 0 15 -10 15 -30 0 -25 4 -30 25 -30
14 0 25 -4 25 -10 0 -5 16 -10 35 -10 33 0 35 2 35 35 0 24 -5 35 -15 35 -9 0
-15 9 -15 25 0 20 -5 25 -25 25 -16 0 -25 6 -25 15 0 10 -11 15 -35 15 -33 0
-35 -2 -35 -35z m53 18 c-7 -2 -21 -2 -30 0 -10 3 -5 5 12 5 17 0 24 -2 18 -5z
m7 -28 c0 -9 -9 -15 -25 -15 -16 0 -25 6 -25 15 0 9 9 15 25 15 16 0 25 -6 25
-15z m50 -15 c0 -11 -7 -20 -15 -20 -8 0 -15 -9 -15 -20 0 -13 -7 -20 -20 -20
-15 0 -20 7 -20 25 0 16 6 25 15 25 8 0 15 7 15 15 0 8 9 15 20 15 13 0 20 -7
20 -20z m23 -37 c-7 -2 -21 -2 -30 0 -10 3 -4 5 12 5 17 0 24 -2 18 -5z m7
-28 c0 -9 -9 -15 -25 -15 -16 0 -25 6 -25 15 0 9 9 15 25 15 16 0 25 -6 25
-15z"/>
</g>
</svg>
