<?xml version="1.0" standalone="no"?>
<!DOCTYPE svg PUBLIC "-//W3C//DTD SVG 20010904//EN"
 "http://www.w3.org/TR/2001/REC-SVG-20010904/DTD/svg10.dtd">
<svg version="1.0" xmlns="http://www.w3.org/2000/svg"
 width="16.000000pt" height="16.000000pt" viewBox="0 0 16.000000 16.000000"
 preserveAspectRatio="xMidYMid meet">

<g transform="translate(0.000000,16.000000) scale(0.100000,-0.100000)"
fill="#000000" stroke="none">
<path d="M10 85 l0 -65 65 0 65 0 0 65 0 65 -65 0 -65 0 0 -65z m120 40 c0
-12 -13 -15 -55 -15 -42 0 -55 3 -55 15 0 12 13 15 55 15 42 0 55 -3 55 -15z
m0 -60 l0 -35 -55 0 -55 0 0 35 0 35 55 0 55 0 0 -35z"/>
<path d="M63 123 c9 -2 23 -2 30 0 6 3 -1 5 -18 5 -16 0 -22 -2 -12 -5z"/>
<path d="M52 65 c6 -14 14 -25 18 -25 4 0 15 11 24 25 14 22 15 25 1 25 -8 0
-14 -3 -14 -7 3 -21 -2 -33 -12 -28 -6 4 -8 13 -5 21 3 8 -1 14 -9 14 -12 0
-12 -5 -3 -25z"/>
</g>
</svg>
